<?xml version="1.0" encoding="utf-8"?>

<!DOCTYPE svg PUBLIC "-//W3C//DTD SVG 1.1//EN" "http://www.w3.org/Graphics/SVG/1.1/DTD/svg11.dtd">
<!-- Uploaded to: SVG Repo, www.svgrepo.com, Generator: SVG Repo Mixer Tools -->
<svg version="1.1" id="_x32_" xmlns="http://www.w3.org/2000/svg" xmlns:xlink="http://www.w3.org/1999/xlink" 
	 viewBox="0 0 512 512"  xml:space="preserve">
<style type="text/css">
	.st0{fill:#000000;}
</style>
<g>
	<path class="st0" d="M31.708,227.439c0.826,0.708,1.877,1.09,2.964,1.09c0.65,0,1.273-0.132,1.869-0.397l29.06-13.14l23.681,19.035
		c0.798,0.647,1.808,0.997,2.844,0.997c1.036,0,2.04-0.35,2.842-0.997l23.682-19.035l29.059,13.14
		c0.592,0.265,1.219,0.397,1.87,0.397c1.082,0,2.138-0.382,2.964-1.09c1.328-1.154,1.88-2.991,1.409-4.682l-26.368-93.284h1.043
		v-24.239c0-4.331-1.016-8.521-3.026-12.462c-2.838-5.554-7.484-10.25-13.435-13.576c-5.951-3.333-12.879-5.101-20.04-5.101
		c-9.568,0.008-18.607,3.131-25.454,8.801c-3.419,2.828-6.118,6.153-8.019,9.876c-2.013,3.934-3.03,8.123-3.03,12.462v24.223h1.044
		l-26.365,93.3C29.823,224.448,30.376,226.286,31.708,227.439z M88.562,221.8l-18.35-14.744l5.472-41.802h12.878V221.8z
		 M88.562,158.119H76.614l3.279-25.088h8.669V158.119z M95.689,221.8l0.003-56.546h12.875l5.471,41.802L95.689,221.8z
		 M95.692,158.119v-25.088h8.666l3.283,25.088H95.692z M128.264,165.254l14.296,50.58l-21.45-9.69l-5.351-40.89H128.264z
		 M126.251,158.119h-11.422l-3.28-25.088h7.61L126.251,158.119z M66.002,105.234c0-2.679,0.635-5.281,1.889-7.742
		c1.896-3.715,5.098-6.917,9.26-9.254c4.397-2.453,9.568-3.762,14.943-3.762h0.062c7.049,0,13.899,2.337,18.802,6.411
		c2.329,1.924,4.143,4.151,5.398,6.605c1.258,2.461,1.892,5.063,1.892,7.742v18.724H66.002V105.234z M65.09,133.031h7.61
		l-3.279,25.088H57.999L65.09,133.031z M55.985,165.254h12.501l-5.347,40.89l-21.45,9.69L55.985,165.254z"/>
	<polygon class="st0" points="138.428,358.367 113.502,363.804 27.327,449.986 62.022,484.677 148.196,398.503 153.636,373.579 
		216.74,310.467 201.534,295.263 	"/>
	
		<rect x="-1.699" y="469.646" transform="matrix(-0.7072 -0.707 0.707 -0.7072 -286.7766 842.932)" class="st0" width="65.712" height="22.405"/>
	<path class="st0" d="M465.73,123.257l-35.291,35.291l-36.085-36.086l48.041-48.04c-0.775-0.834-1.527-1.675-2.337-2.484
		c-1.336-1.34-2.726-2.625-4.14-3.872l-47.978,47.979l-36.085-36.086l34.107-34.106c-3.872-0.538-7.816-0.865-11.827-1.005
		l-28.698,28.694l-20.769-20.773c-3.107,1.09-6.184,2.297-9.237,3.598l23.596,23.592l-40.1,40.096l-31.981-31.98
		c-1.651,1.534-3.291,3.1-4.898,4.712c-0.538,0.53-1.056,1.091-1.59,1.636l32.055,32.051l-40.093,40.088l-24.098-24.098
		c-1.277,3.116-2.406,6.262-3.407,9.424l21.092,21.092l-25.784,25.782c0.432,3.691,1.051,7.344,1.874,10.958l30.325-30.33
		l36.089,36.086l-41.6,41.607c1.258,1.386,2.563,2.757,3.91,4.104c0.802,0.802,1.628,1.581,2.45,2.36l41.654-41.654l36.082,36.086
		l-31.319,31.318c2.78,0.701,5.589,1.309,8.431,1.784c0.755,0.132,1.515,0.226,2.278,0.335l27.022-27.019l22.689,22.681
		c3.162-0.989,6.309-2.118,9.44-3.388l-25.711-25.71l40.093-40.089l33.644,33.64c0.549-0.522,1.102-1.028,1.639-1.566
		c1.616-1.621,3.17-3.256,4.709-4.915l-33.578-33.577l40.096-40.096l25.17,25.165c1.297-3.053,2.488-6.13,3.586-9.245
		l-22.338-22.338l30.182-30.182C466.801,130.874,466.361,127.027,465.73,123.257z M345.437,86.37l36.089,36.092l-40.096,40.097
		l-36.089-36.085L345.437,86.37z M258.834,172.98l40.093-40.096l36.085,36.093l-40.089,40.088L258.834,172.98z M337.418,251.568
		l-36.081-36.092l40.093-40.089l36.081,36.085L337.418,251.568z M383.929,205.054l-36.085-36.077l40.096-40.104l36.085,36.085
		L383.929,205.054z"/>
	<path class="st0" d="M504.931,93.979c-6.406-20.103-17.318-38.702-32.767-54.147c-15.438-15.438-34.037-26.349-54.143-32.759
		c-30.189-9.628-63.685-9.261-96.253,0.093c-32.58,9.362-64.338,27.751-91.229,54.63c-17.914,17.922-31.521,37.487-40.829,57.769
		c-13.973,30.414-18.241,62.48-13.166,92.647c5.047,30.181,19.468,58.399,42.168,81.08c15.122,15.118,32.701,26.591,51.682,34.037
		c28.479,11.184,60.094,13.28,91.21,5.717c31.135-7.547,61.729-24.706,88.6-51.585c35.828-35.851,56.604-80.341,60.954-123.95
		C513.319,135.711,511.349,114.097,504.931,93.979z M477.277,182.319c-7.968,27.751-23.842,55.362-47.355,78.861
		c-15.674,15.686-32.428,27.238-49.443,35.05c-25.532,11.706-51.628,15.032-75.944,10.95c-24.324-4.097-46.931-15.577-65.546-34.161
		c-12.399-12.408-21.621-26.606-27.618-41.88c-8.98-22.922-10.756-48.328-4.545-73.984c6.224-25.633,20.485-51.554,43.991-75.084
		c31.334-31.35,69.993-49.084,106.507-52.691c18.248-1.807,35.933-0.116,51.977,5.008c16.065,5.14,30.502,13.646,42.589,25.718
		c12.084,12.096,20.589,26.536,25.722,42.596C485.303,126.754,485.257,154.552,477.277,182.319z"/>
</g>
</svg>