<?xml version="1.0" encoding="utf-8"?>

<!DOCTYPE svg PUBLIC "-//W3C//DTD SVG 1.1//EN" "http://www.w3.org/Graphics/SVG/1.1/DTD/svg11.dtd">
<!-- Uploaded to: SVG Repo, www.svgrepo.com, Generator: SVG Repo Mixer Tools -->
<svg height="800px" width="800px" version="1.1" id="_x32_" xmlns="http://www.w3.org/2000/svg" xmlns:xlink="http://www.w3.org/1999/xlink" 
	 viewBox="0 0 512 512"  xml:space="preserve">
<style type="text/css">
	.st0{fill:#000000;}
</style>
<g>
	<path class="st0" d="M256,0C114.61,0,0,114.619,0,256c0,141.38,114.61,256,256,256c141.39,0,256-114.62,256-256
		C512,114.619,397.39,0,256,0z M306.89,261.12c-42.65,84.34-137.109,103.57-197.519,67.76C49.69,293.29,38.35,213.299,75.21,149.76
		c37.12-64,103.22-94.881,168.01-71.12C308.14,101.46,349.75,176.519,306.89,261.12z"/>
	<path class="st0" d="M210.87,129.3c-30.12-12.28-55.64-1.56-66.94,18.2c-6.85,12.1-5.161,24.629-1.021,32.08l-0.219,0.399
		c-11.86,1.781-24.84,8.93-32.31,24.02c-12.09,24.781-1.51,50.681,26.14,65.011c27.761,14.389,59.19,8.66,72.49-17.71
		c8.12-15.941,5.08-31.31-1.62-41.801l0.21-0.38c9.79-1.3,23.08-7.7,30.11-20.539C249.31,167.439,241.17,141.68,210.87,129.3z
		 M178.17,234.86c-5.88,11.6-18.16,15.6-29.88,9.81c-11.699-5.8-15.339-17.45-9.68-28.75c5.611-11.11,17.36-15.32,29.251-9.82
		C179.81,211.599,183.99,223.499,178.17,234.86z M206.34,174.53c-4.71,8.51-15.61,12.52-25.85,7.93
		c-10.221-4.6-12.88-14.55-8.24-22.839c4.79-8.46,15.31-12.52,25.58-8.141C208.13,155.869,211.16,165.83,206.34,174.53z"/>
</g>
</svg>