<?xml version="1.0" encoding="utf-8"?>

<!DOCTYPE svg PUBLIC "-//W3C//DTD SVG 1.1//EN" "http://www.w3.org/Graphics/SVG/1.1/DTD/svg11.dtd">
<!-- Uploaded to: SVG Repo, www.svgrepo.com, Generator: SVG Repo Mixer Tools -->
<svg height="800px" width="800px" version="1.1" id="_x32_" xmlns="http://www.w3.org/2000/svg" xmlns:xlink="http://www.w3.org/1999/xlink" 
	 viewBox="0 0 512 512"  xml:space="preserve">
<style type="text/css">
	.st0{fill:#000000;}
</style>
<g>
	<path class="st0" d="M480.342,107.049c-6.022-24.4-18.971-46.976-37.327-65.331l-0.093-0.093l-0.078-0.07
		c-0.007-0.015-0.023-0.023-0.031-0.031l-0.21-0.203l-0.008,0.008c-16.452-16.421-35.805-28.27-57.234-34.955
		C371.794,2.145,357.519,0,342.892,0c-1.95,0-3.931,0.039-5.944,0.125l-0.679,0.023l0.718-0.023
		c-24.057,0.928-48.333,7.41-72.063,19.034c-23.301,11.381-45.15,27.295-64.972,47.109c-34.651,34.666-56.251,77.858-60.432,122.104
		c-0.46,4.938-0.694,9.931-0.694,14.915c0,3.292,0.132,6.576,0.328,9.876c-1.467,29.884-8.004,57.39-19.369,81.97
		c-9.408,20.376-22.294,39.074-38.309,55.635l-2.559,2.566c-4.36,4.376-12.302,12.021-24.612,24.088
		c-8.862,8.659-16.444,16.07-18.402,18.035c-1.552,1.56-3.526,3.822-5.25,6.998c-1.717,3.143-3.175,7.309-3.175,12.177
		c-0.07,7.138,3.37,14.814,9.875,21.186l17.388,17.388l0.733-0.741c4.696,2.949,9.665,4.602,14.424,4.556
		c4.883,0,9.049-1.467,12.184-3.182c3.167-1.732,5.438-3.698,7.006-5.266c2.036-2.02,9.361-9.54,18.02-18.363l0.015-0.008
		c11.967-12.247,19.557-20.134,23.987-24.556l2.614-2.575l-0.054,0.047c14.587-14.174,34.518-27.177,57.421-37.162
		c25.095-10.929,52.312-17.864,80.987-20.548c2.606,0.148,5.25,0.234,7.918,0.242c16.756-0.031,34.402-2.598,48.443-6.818
		c32.544-9.852,63.708-28.153,89.817-54.261c17.575-17.591,32.116-36.843,43.161-57.304c8.316-15.39,14.51-31.273,18.379-47.218
		c3.136-12.949,4.727-25.781,4.727-38.388C484.522,129.874,483.134,118.282,480.342,107.049z M73.815,433.22l-0.039,0.039
		l-2.028,1.56l-1.848,0.538c-0.679-0.062-2.2-0.007-5.827-3.486l-1.724-1.693l-1.88-1.864l-7.161-7.145l-0.624-0.632
		c-3.565-3.682-3.486-5.226-3.55-5.905l0.546-1.848l1.552-2.036l0.016-0.016c1.038-1.045,4.711-4.649,9.438-9.267l22.365,22.372
		C78.425,428.548,74.837,432.229,73.815,433.22z M93.106,413.562l-1.451,1.482c-0.358,0.374-0.679,0.694-1.03,1.053l-22.201-22.209
		c0.351-0.336,0.671-0.64,1.014-0.99c4.642-4.548,8.464-8.269,11.904-11.623l28.652,14.954
		C105.782,400.543,100.298,406.183,93.106,413.562z M118.591,387.578l-0.608,0.609l-28.488-14.869
		c1.833-1.786,3.448-3.385,4.758-4.696l2.59-2.598l0.07-0.069l0.039-0.039c4.68-4.829,9.095-9.876,13.292-15.048l23.636,23.643
		C128.444,378.702,123.28,383.038,118.591,387.578z M458.756,174.931c-3.408,14.002-8.9,28.192-16.389,42.046
		c-9.97,18.464-23.215,36.07-39.425,52.288c-23.589,23.573-51.687,40.025-80.776,48.84c-11.482,3.495-27.732,5.914-42.17,5.882
		c-2.59,0.008-5.109-0.062-7.528-0.21l-0.257-0.024l-0.663-0.031l-0.812,0.055l-0.203,0.023h-0.077
		c-31.008,2.863-60.635,10.368-88.016,22.31c-14.384,6.287-27.622,13.768-39.627,22.029l-25.992-26
		c8.76-11.928,16.436-24.542,22.622-37.912c12.645-27.357,19.783-57.741,21.358-90.2l0.008-0.25v-0.515v-0.374l-0.023-0.351
		c-0.211-3.074-0.304-6.163-0.304-9.252c0-4.322,0.203-8.636,0.601-12.887c3.596-38.536,22.684-77.329,54.176-108.82
		c18.3-18.293,38.232-32.732,59.184-42.966c21.358-10.461,42.654-16.039,63.396-16.858l0.679-0.031l-0.64,0.031
		c1.654-0.07,3.323-0.102,5.016-0.102c12.512,0,24.588,1.825,36.016,5.39c18.137,5.663,34.386,15.586,48.606,29.814l0.094,0.086
		l0.141,0.132c15.663,15.68,26.553,34.776,31.577,55.166c2.356,9.517,3.542,19.323,3.542,29.416
		C462.868,152.449,461.518,163.558,458.756,174.931z"/>
	<polygon class="st0" points="37.354,435.834 37.354,435.818 36.722,435.194 	"/>
	<path class="st0" d="M185.95,298.752c-4.938-4.938-9.454-10.399-13.433-16.241l-2.395-3.503l-1.217,4.048
		c-2.987,9.938-6.662,19.627-10.905,28.8c-4.564,9.876-9.962,19.517-16.023,28.644l2.754,2.832
		c9.439-5.858,19.634-11.186,30.321-15.858c9.073-3.971,18.636-7.505,28.442-10.492l4.134-1.256l-3.619-2.364
		C197.409,309.041,191.333,304.111,185.95,298.752z"/>
	<path class="st0" d="M311.659,48.122c0.031-0.008,0.062-0.008,0.086-0.016l1.319-0.32L311.659,48.122z"/>
	<path class="st0" d="M412.951,76.938v-0.319l-2.535-2.536c-13.137-13.136-28.777-22.162-46.102-26.46
		c-7.965-1.997-16.179-2.964-24.564-2.956c-9.158,0-18.534,1.178-28.005,3.44l-0.109,0.031c-12.068,2.933-24.143,7.66-35.93,14.018
		c-16.085,8.69-31.289,20.173-45.236,34.12c-20.157,20.173-34.705,44.02-41.929,69.169c-3.385,11.771-5.086,23.581-5.094,35.126
		c0,11.772,1.786,23.255,5.39,34.09c4.782,14.361,12.645,27.154,23.254,37.771c10.61,10.61,23.402,18.472,37.772,23.254l0.116,0.031
		c10.765,3.549,22.162,5.336,33.949,5.336c3.69,0,7.434-0.172,11.218-0.515c33.496-3.151,66.4-19.798,93.102-46.5
		c15.703-15.687,28.231-32.903,37.162-51.149c8.776-17.911,13.675-36.063,14.362-53.88c0.046-1.427,0.07-2.832,0.07-4.252
		c0-10.39-1.49-20.507-4.486-30.063C430.978,100.699,423.295,88.031,412.951,76.938z M418.825,119.858
		c1.662,5.304,2.559,10.913,3.097,16.654l-15.017,15.017l-33.363-33.371l28.012-28.02
		C409.581,99.116,415.416,109.014,418.825,119.858z M254.292,154.781l31.663-31.655l33.371,33.372l-31.67,31.647L254.292,154.781z
		 M279.722,196.086l-29.752,29.768l-33.356-33.371l29.745-29.76L279.722,196.086z M293.897,115.177l30.384-30.384l33.371,33.364
		l-30.376,30.392L293.897,115.177z M327.276,164.424l33.355,33.379l-31.654,31.662l-33.364-33.379L327.276,164.424z
		 M335.217,156.498l30.384-30.384l33.356,33.363l-30.376,30.384L335.217,156.498z M346.684,62.398
		c4.58,0.359,9.088,0.952,13.441,2.028c12.318,3.081,23.41,9.119,33.41,17.84l-27.935,27.95l-33.363-33.363L346.684,62.398z
		 M330.63,62.554l-6.35,6.35l-4.65-4.658C323.352,63.498,327.018,62.905,330.63,62.554z M283.935,77.391
		c7.723-4.166,15.5-7.208,23.238-9.705l9.165,9.166l-30.392,30.376l-19.065-19.073C272.468,84.201,278.131,80.519,283.935,77.391z
		 M242.716,108.531c4.891-4.899,9.977-9.33,15.141-13.511l20.157,20.157l-31.655,31.655l-19.619-19.626
		C231.498,120.716,236.795,114.444,242.716,108.531z M205.187,170.227c3.284-11.467,8.409-22.762,15.125-33.543l18.098,18.097
		l-29.752,29.752l-5.398-5.406C203.868,176.172,204.329,173.222,205.187,170.227z M205.264,229.193
		c-2.246-6.787-3.377-14.026-3.939-21.444l7.333-7.348l33.371,33.371l-21.795,21.803C213.651,247.852,208.58,239.1,205.264,229.193z
		 M275.378,283.072c-6.927-0.625-13.698-1.74-20.063-3.83l-0.031-0.008c-10.243-3.424-19.26-8.744-27.147-15.68l21.834-21.826
		l33.372,33.371L275.378,283.072z M290.94,283.408l0.344-0.359l0.32,0.32C291.385,283.384,291.159,283.384,290.94,283.408z
		 M291.283,267.151l-33.364-33.379l29.737-29.744l33.379,33.371L291.283,267.151z M305.566,281.426l-6.342-6.326l29.753-29.752
		l18.87,18.862C334.273,272.658,319.951,278.478,305.566,281.426z M375.991,241.799c-5.928,5.936-12.185,11.28-18.659,16.022
		l-20.407-20.422l31.655-31.655l20.905,20.914C385.305,231.814,380.898,236.884,375.991,241.799z M409.846,195.275
		c-3.729,7.644-8.277,15.11-13.448,22.388l-19.868-19.86l30.376-30.384l10.032,10.031
		C415.026,183.34,412.787,189.284,409.846,195.275z M420.26,164.892l-5.414-5.414l7.223-7.224
		C421.742,156.42,421.126,160.64,420.26,164.892z"/>
	<path class="st0" d="M250.61,295.927l-0.632-0.21c-0.031,0-0.062-0.016-0.093-0.023L250.61,295.927z"/>
	<path class="st0" d="M442.414,396.604l-0.039-0.062c-2.231-3.362-4.797-6.568-7.628-9.58l-0.047-0.054l-0.796-0.796
		c-14.463-14.876-33.785-22.365-53.044-22.365c-7.068,0-14.136,0.998-20.992,3.027h0.008c-5.936,1.732-11.725,4.259-17.161,7.535
		l-0.312,0.188l0.328-0.195c-4.516,2.691-8.815,5.936-12.786,9.696c-15.422,14.548-23.214,34.253-23.214,53.903
		c0,13.355,3.596,26.772,10.882,38.614l-0.023-0.031c1.864,3.089,4.001,6.061,6.397,8.885l-0.008,0.007
		c0.959,1.186,1.966,2.325,2.987,3.401c14.58,15.422,34.261,23.23,53.911,23.223c10.851,0,21.71-2.38,31.765-7.169
		c6.872-3.23,13.331-7.606,19.127-13.074c3.526-3.339,6.646-6.904,9.353-10.734l-0.015,0.031
		c9.212-12.801,13.878-27.942,13.878-43.091v-0.054v-0.055v-0.124c0-14.354-4.205-28.754-12.63-41.22L442.414,396.604z
		 M333.899,468.964l-1.147,0.873l-0.031-0.031c-6.443-9.641-9.618-20.765-9.642-31.904c0.023-13.838,4.922-27.63,14.719-38.536
		l1.396-1.443c-0.116,0.788-0.257,1.56-0.343,2.356c-0.195,1.724-0.281,3.472-0.281,5.25c0,4.454,0.609,9.103,1.896,13.901
		c1.74,6.35,2.824,13.768,2.793,21.007c0.031,4.516-0.405,8.948-1.287,12.988c-1.318,6.092-3.698,11.186-7.075,14.611
		L333.899,468.964z M389.088,495.049c-2.714,0.398-5.476,0.593-8.214,0.593c-15.352,0-30.633-6.045-42.014-18.09l-0.398-0.445
		l-0.102-0.125l1.138-0.897c1.568-1.311,2.941-2.801,4.174-4.408c3.23-4.197,5.359-9.189,6.708-14.525
		c1.365-5.335,1.92-11.022,1.92-16.716c0-8.12-1.162-16.234-3.097-23.394c-1.1-4.025-1.591-7.856-1.591-11.514
		c0-5.352,1.03-10.391,2.816-15.126c0.257-0.725,0.562-1.419,0.858-2.13c9.104-5.444,19.315-8.175,29.573-8.175
		c15.359,0,30.61,6.045,41.991,18.098c1.334,1.412,2.558,2.863,3.713,4.36l-0.585,1.038l-0.195,0.28
		c-2.683,3.932-7.036,7.614-13.878,10.563c-11.685,5.008-20.352,13.09-26.015,22.232c-5.656,9.142-8.394,19.361-8.394,28.917
		c0,8.839,2.325,17.216,7.231,23.644c1.21,1.599,2.59,3.058,4.134,4.353l1.646,1.232L389.088,495.049z M420.534,479.868
		c-4.907,4.634-10.43,8.191-16.249,10.765c-0.913-0.094-1.802-0.233-2.621-0.452c-1.311-0.304-2.52-0.756-3.635-1.318
		c-3.588-1.787-6.389-4.766-8.386-8.791c-2.005-4.025-3.105-9.042-3.105-14.486c0-7.839,2.286-16.483,7.029-24.166
		c4.79-7.684,11.966-14.416,21.912-18.675c6.607-2.824,11.732-6.521,15.43-10.764l0.975-1.178l0.32,0.562
		c4.306,8.277,6.428,17.372,6.428,26.491C438.631,453.206,432.586,468.479,420.534,479.868z"/>
	<polygon class="st0" points="413.099,504.62 412.647,504.831 412.639,504.831 412.631,504.839 	"/>
</g>
</svg>